<?xml version="1.0" encoding="UTF-8" standalone="no"?>
<svg
   xmlns:dc="http://purl.org/dc/elements/1.1/"
   xmlns:cc="http://creativecommons.org/ns#"
   xmlns:rdf="http://www.w3.org/1999/02/22-rdf-syntax-ns#"
   xmlns:svg="http://www.w3.org/2000/svg"
   xmlns="http://www.w3.org/2000/svg"
   xmlns:sodipodi="http://sodipodi.sourceforge.net/DTD/sodipodi-0.dtd"
   xmlns:inkscape="http://www.inkscape.org/namespaces/inkscape"
   sodipodi:docname="Examples.svg"
   inkscape:version="1.0.2 (1.0.2+r75+1)"
   id="svg8"
   version="1.1"
   viewBox="0 0 793.70081 1122.5197"
   height="297mm"
   width="210mm">
  <defs
     id="defs2">
    <marker
       id="diskCenter"
       orient="auto"
       refX="0.0"
       refY="0.0"
       style="overflow:visible"
       inkscape:stockid="diskCenter">
      <path
         d="M -2.5,-1.0 C -2.5,1.7600000 -4.7400000,4.0 -7.5,4.0 C -10.260000,4.0 -12.5,1.7600000 -12.5,-1.0 C -12.5,-3.7600000 -10.260000,-6.0 -7.5,-6.0 C -4.7400000,-6.0 -2.5,-3.7600000 -2.5,-1.0 z "
         style="fill:#FFFFFF;fill-rule:evenodd;stroke:#4C4C4C;stroke-width:1.0"
         transform="scale(0.3) translate(7.4, 1)"
         id="path2245" />
    </marker>
    <marker
       id="diskPen"
       orient="auto"
       refX="0.0"
       refY="0.0"
       style="overflow:visible"
       inkscape:stockid="diskPen">
      <path
         d="M -2.5,-1.0 C -2.5,1.7600000 -4.7400000,4.0 -7.5,4.0 C -10.260000,4.0 -12.5,1.7600000 -12.5,-1.0 C -12.5,-3.7600000 -10.260000,-6.0 -7.5,-6.0 C -4.7400000,-6.0 -2.5,-3.7600000 -2.5,-1.0 z "
         style="fill:#FFFFFF;fill-rule:evenodd;stroke:#4C4C4C;stroke-width:1.0"
         transform="scale(0.3) translate(7.4, 1)"
         id="path2248" />
    </marker>
    <marker
       id="arrowRotStart"
       orient="auto"
       refX="0.0"
       refY="0.0"
       style="overflow:visible"
       inkscape:stockid="arrowRotStart">
      <path
         d="M 0.0,0.0 L 5.0,-5.0 L -12.5,0.0 L 5.0,5.0 L 0.0,0.0 z "
         style="fill:#4C4C4C;fill-rule:evenodd;stroke:#4C4C4C;stroke-width:1.0"
         transform="scale(0.3) rotate(0) translate(7.801,0)"
         id="path2251" />
    </marker>
    <marker
       id="arrowRotEnd"
       orient="auto"
       refX="0.0"
       refY="0.0"
       style="overflow:visible"
       inkscape:stockid="arrowRotEnd">
      <path
         d="M 0.0,0.0 L 5.0,-5.0 L -12.5,0.0 L 5.0,5.0 L 0.0,0.0 z "
         style="fill:#4C4C4C;fill-rule:evenodd;stroke:#4C4C4C;stroke-width:1.0"
         transform="scale(0.3) rotate(180) translate(7.801,0)"
         id="path2254" />
    </marker>
  </defs>
  <sodipodi:namedview
     id="base"
     pagecolor="#ffffff"
     bordercolor="#666666"
     borderopacity="1.0"
     inkscape:pageopacity="0.0"
     inkscape:pageshadow="2"
     inkscape:zoom="0.7"
     inkscape:cx="113.19473"
     inkscape:cy="569.73453"
     inkscape:document-units="px"
     inkscape:current-layer="svg8"
     inkscape:document-rotation="0"
     showgrid="true"
     inkscape:window-width="1920"
     inkscape:window-height="1056"
     inkscape:window-x="0"
     inkscape:window-y="0"
     inkscape:window-maximized="1"
     inkscape:snap-text-baseline="true">
    <inkscape:grid
       type="xygrid"
       id="grid869" />
  </sodipodi:namedview>
  <metadata
     id="metadata5">
    <rdf:RDF>
      <cc:Work
         rdf:about="">
        <dc:format>image/svg+xml</dc:format>
        <dc:type
           rdf:resource="http://purl.org/dc/dcmitype/StillImage" />
        <dc:title></dc:title>
      </cc:Work>
    </rdf:RDF>
  </metadata>
  <g
     inkscape:label="Layer 1"
     inkscape:groupmode="layer"
     id="layer1" />
  <g
     inkscape:label="Spiro"
     id="g1492"
     transform="translate(-79.353205,-41.501969)"
     inkscape:export-xdpi="198.87013"
     inkscape:export-ydpi="198.87013">
    <circle
       style="fill:none;stroke:#4c4c4c;stroke-width:0.5;stroke-linecap:round;stroke-linejoin:round;stroke-dasharray:none"
       inkscape:label="circle"
       id="path1486"
       cx="280"
       cy="210"
       r="100" />
    <circle
       style="fill:none;stroke:#4c4c4c;stroke-width:0.5;stroke-linecap:round;stroke-linejoin:round;stroke-dasharray:none"
       inkscape:label="circle"
       id="path1488"
       cx="350"
       cy="210"
       r="30" />
    <path
       d="m 395,210 -0.98564,-2.73054 -2.92944,-2.48367 -4.79174,-1.99932 -6.52116,-1.29591 -8.07065,-0.40023 -9.39902,0.65339 -10.47232,1.82438 -11.2648,3.06727 -11.75987,4.33333 -11.95048,5.57222 -11.83937,6.73379 -11.4389,7.76979 -10.77055,8.63562 -9.86415,9.29186 -8.75687,9.70574 -7.49185,9.85222 -6.11672,9.71501 -4.68196,9.28717 -3.23912,8.57135 -1.83913,7.57988 -0.53045,6.33435 0.64252,4.86498 1.64095,3.20967 2.43292,1.41279 2.9945,-0.47632 3.3105,-2.40481 3.37502,-4.31825 3.19158,-6.16221 2.77299,-7.88418 2.14086,-9.43528 1.32477,-10.77177 0.36136,-11.85661 -0.70718,-12.66059 -1.83442,-13.16326 -2.97145,-13.35367 -4.06855,-13.23063 -5.07702,-12.8027 -5.95081,-12.08799 -6.64824,-11.11337 -7.13349,-9.91363 -7.37785,-8.53028 -7.36081,-7.01009 -7.07082,-5.40358 -6.50578,-3.76317 -5.67315,-2.14158 -4.58981,-0.58991 -3.28153,0.84401 -1.78216,2.11719 -0.13258,3.19297 1.62067,4.0422 3.42691,4.64417 5.23296,4.98727 6.9849,5.06938 8.62991,4.89777 10.11798,4.48894 11.40357,3.86782 12.44716,3.06702 13.21654,2.12554 13.68792,1.08738 h 13.8467 l 13.68792,-1.08738 13.21654,-2.12554 12.44716,-3.06702 11.40357,-3.86782 10.11798,-4.48894 8.62991,-4.89777 6.9849,-5.06938 5.23296,-4.98727 3.42691,-4.64417 1.62067,-4.0422 -0.13258,-3.19297 -1.78216,-2.11719 -3.28153,-0.84401 -4.58981,0.58991 -5.67315,2.14158 -6.50578,3.76317 -7.07082,5.40358 -7.36081,7.01009 -7.37785,8.53028 -7.13349,9.91363 -6.64824,11.11337 -5.95081,12.08799 -5.07702,12.8027 -4.06855,13.23063 -2.97145,13.35367 -1.83442,13.16326 -0.70718,12.66059 0.36136,11.85661 1.32477,10.77177 2.14086,9.43528 2.77299,7.88418 3.19158,6.16221 3.37502,4.31825 3.3105,2.40481 2.9945,0.47632 2.43292,-1.41279 1.64095,-3.20967 0.64252,-4.86498 -0.53045,-6.33435 -1.83913,-7.57988 -3.23912,-8.57135 -4.68196,-9.28717 -6.11672,-9.71501 -7.49185,-9.85222 -8.75687,-9.70574 -9.86415,-9.29186 -10.77055,-8.63562 -11.4389,-7.76979 -11.83937,-6.73379 -11.95048,-5.57222 -11.75987,-4.33333 -11.2648,-3.06727 -10.47232,-1.82438 -9.39902,-0.65339 -8.07065,0.40023 -6.52116,1.29591 -4.79174,1.99932 -2.92944,2.48367 L 165,210 l 0.98564,2.73054 2.92944,2.48367 4.79174,1.99932 6.52116,1.29591 8.07065,0.40023 9.39902,-0.65339 10.47232,-1.82438 11.2648,-3.06727 11.75987,-4.33333 11.95048,-5.57222 11.83937,-6.73379 11.4389,-7.76979 10.77055,-8.63562 9.86415,-9.29186 8.75687,-9.70574 7.49185,-9.85222 6.11672,-9.71501 4.68196,-9.28717 3.23912,-8.57135 1.83913,-7.57988 0.53045,-6.33435 -0.64252,-4.86498 -1.64095,-3.20967 -2.43292,-1.41279 -2.9945,0.47632 -3.3105,2.40481 -3.37502,4.31825 -3.19158,6.16221 -2.77299,7.88418 -2.14086,9.43528 -1.32477,10.77177 -0.36136,11.85661 0.70718,12.66059 1.83442,13.16326 2.97145,13.35367 4.06855,13.23063 5.07702,12.8027 5.95081,12.08799 6.64824,11.11337 7.13349,9.91363 7.37785,8.53028 7.36081,7.01009 7.07082,5.40358 6.50578,3.76317 5.67315,2.14158 4.58981,0.58991 3.28153,-0.84401 1.78216,-2.11719 0.13258,-3.19297 -1.62067,-4.0422 -3.42691,-4.64417 -5.23296,-4.98727 -6.9849,-5.06938 -8.62991,-4.89777 -10.11798,-4.48894 -11.40357,-3.86782 -12.44716,-3.06702 -13.21654,-2.12554 -13.68792,-1.08738 h -13.8467 l -13.68792,1.08738 -13.21654,2.12554 -12.44716,3.06702 -11.40357,3.86782 -10.11798,4.48894 -8.62991,4.89777 -6.9849,5.06938 -5.23296,4.98727 -3.42691,4.64417 -1.62067,4.0422 0.13258,3.19297 1.78216,2.11719 3.28153,0.84401 4.58981,-0.58991 5.67315,-2.14158 6.50578,-3.76317 7.07082,-5.40358 7.36081,-7.01009 7.37785,-8.53028 7.13349,-9.91363 6.64824,-11.11337 5.95081,-12.08799 5.07702,-12.8027 4.06855,-13.23063 2.97145,-13.35367 1.83442,-13.16326 0.70718,-12.66059 -0.36136,-11.85661 -1.32477,-10.77177 -2.14086,-9.43528 -2.77299,-7.88418 -3.19158,-6.16221 -3.37502,-4.31825 -3.3105,-2.40481 -2.9945,-0.47632 -2.43292,1.41279 -1.64095,3.20967 -0.64252,4.86498 0.53045,6.33435 1.83913,7.57988 3.23912,8.57135 4.68196,9.28717 6.11672,9.71501 7.49185,9.85222 8.75687,9.70574 9.86415,9.29186 10.77055,8.63562 11.4389,7.76979 11.83937,6.73379 11.95048,5.57222 11.75987,4.33333 11.2648,3.06727 10.47232,1.82438 9.39902,0.65339 8.07065,-0.40023 6.52116,-1.29591 4.79174,-1.99932 2.92944,-2.48367 z"
       style="fill:none;stroke:#ff0000;stroke-width:0.8;stroke-linecap:round;stroke-linejoin:round;stroke-dasharray:none"
       inkscape:label="spiro"
       id="path1490" />
  </g>
  <text
     xml:space="preserve"
     style="font-style:normal;font-variant:normal;font-weight:normal;font-stretch:normal;font-size:24px;line-height:1.25;font-family:sans-serif;-inkscape-font-specification:sans-serif;font-variant-ligatures:normal;font-variant-position:normal;font-variant-caps:normal;font-variant-numeric:normal;font-variant-alternates:normal;font-variant-east-asian:normal;font-feature-settings:normal;font-variation-settings:normal;text-indent:0;text-align:center;text-decoration:none;text-decoration-line:none;text-decoration-style:solid;text-decoration-color:#000000;letter-spacing:normal;word-spacing:normal;text-transform:none;writing-mode:lr-tb;direction:ltr;text-orientation:mixed;dominant-baseline:auto;baseline-shift:baseline;text-anchor:middle;white-space:normal;shape-padding:0;shape-margin:0;inline-size:0;opacity:1;vector-effect:none;fill:#000000;fill-opacity:1;stroke-width:1;stroke-linecap:butt;stroke-linejoin:miter;stroke-miterlimit:4;stroke-dasharray:none;stroke-dashoffset:0;stroke-opacity:1;stop-color:#000000;stop-opacity:1"
     x="120"
     y="40"
     id="text1506"
     transform="translate(80.523748)"
     inkscape:export-xdpi="198.87013"
     inkscape:export-ydpi="198.87013"><tspan
       sodipodi:role="line"
       id="tspan1504"
       x="120"
       y="40">R=100 r=30 d=45</tspan></text>
  <g
     inkscape:label="Spiro"
     id="g1537"
     transform="translate(-90.269504,63.3886)"
     inkscape:export-xdpi="198.87013"
     inkscape:export-ydpi="198.87013">
    <circle
       style="fill:none;stroke:#4c4c4c;stroke-width:0.5;stroke-linecap:round;stroke-linejoin:round;stroke-dasharray:none"
       inkscape:label="circle"
       id="path1531"
       cx="280"
       cy="380"
       r="100" />
    <circle
       style="fill:none;stroke:#4c4c4c;stroke-width:0.5;stroke-linecap:round;stroke-linejoin:round;stroke-dasharray:none"
       inkscape:label="circle"
       id="path1533"
       cx="360"
       cy="380"
       r="20" />
    <path
       d="m 405,380 -2.51099,-7.71983 -7.30474,-6.34737 -11.43658,-3.74397 -14.53882,-0.17842 -16.3463,3.98018 -16.72283,8.29959 -15.67445,12.32793 -13.34865,15.63902 -10.01919,17.87548 -6.05851,18.78456 -1.89996,18.24383 2.0058,16.27359 5.23629,13.03507 7.43982,8.81447 8.3709,3.99451 7.91511,-0.98377 6.10062,-5.66494 3.09557,-9.62469 -0.80876,-12.51203 -5.22716,-14.08428 -9.71901,-14.23116 -13.83258,-12.98546 -17.15031,-10.51953 -19.33077,-7.12765 -20.14295,-3.19622 -19.48959,0.83533 -17.41697,4.51894 -14.11041,7.44309 -9.87584,9.27446 -5.10919,9.79155 -0.25695,8.90723 4.22853,6.67761 7.93421,3.2967 10.52752,-0.9229 11.78956,-5.58123 11.63674,-10.23092 10.12894,-14.42201 7.46325,-17.74693 3.95379,-19.8814 v -20.61686 l -3.95379,-19.8814 -7.46325,-17.74693 -10.12894,-14.42201 -11.63674,-10.23092 -11.78956,-5.58123 -10.52752,-0.9229 -7.93421,3.2967 -4.22853,6.67761 0.25695,8.90723 5.10919,9.79155 9.87584,9.27446 14.11041,7.44309 17.41697,4.51894 19.48959,0.83533 20.14295,-3.19622 19.33077,-7.12765 17.15031,-10.51953 13.83258,-12.98546 9.71901,-14.23116 5.22716,-14.08428 0.80876,-12.51203 -3.09557,-9.62469 -6.10062,-5.66494 -7.91511,-0.98377 -8.3709,3.99451 -7.43982,8.81447 -5.23629,13.03507 -2.0058,16.27359 1.89996,18.24383 6.05851,18.78456 10.01919,17.87548 13.34865,15.63902 15.67445,12.32793 16.72283,8.29959 16.3463,3.98018 14.53882,-0.17842 11.43658,-3.74397 7.30474,-6.34737 z"
       style="fill:none;stroke:#ff0000;stroke-width:0.8;stroke-linecap:round;stroke-linejoin:round;stroke-dasharray:none"
       inkscape:label="spiro"
       id="path1535" />
  </g>
  <text
     xml:space="preserve"
     style="font-style:normal;font-variant:normal;font-weight:normal;font-stretch:normal;font-size:24px;line-height:1.25;font-family:sans-serif;-inkscape-font-specification:sans-serif;font-variant-ligatures:normal;font-variant-position:normal;font-variant-caps:normal;font-variant-numeric:normal;font-variant-alternates:normal;font-variant-east-asian:normal;font-feature-settings:normal;font-variation-settings:normal;text-indent:0;text-align:center;text-decoration:none;text-decoration-line:none;text-decoration-style:solid;text-decoration-color:#000000;letter-spacing:normal;word-spacing:normal;text-transform:none;writing-mode:lr-tb;direction:ltr;text-orientation:mixed;dominant-baseline:auto;baseline-shift:baseline;text-anchor:middle;white-space:normal;shape-padding:0;shape-margin:0;inline-size:0;opacity:1;vector-effect:none;fill:#000000;fill-opacity:1;stroke-width:1;stroke-linecap:butt;stroke-linejoin:miter;stroke-miterlimit:4;stroke-dasharray:none;stroke-dashoffset:0;stroke-opacity:1;stop-color:#000000;stop-opacity:1"
     x="210"
     y="340"
     id="text1506-3"
     transform="translate(-10,-20)"
     inkscape:export-xdpi="198.87013"
     inkscape:export-ydpi="198.87013"><tspan
       sodipodi:role="line"
       id="tspan1504-6"
       x="210"
       y="340">R=100 r=20 d=45</tspan></text>
  <g
     inkscape:label="Spiro"
     id="g1608"
     transform="translate(-79.398635,-171.72075)"
     inkscape:export-xdpi="198.87013"
     inkscape:export-ydpi="198.87013">
    <circle
       style="fill:none;stroke:#4c4c4c;stroke-width:0.5;stroke-linecap:round;stroke-linejoin:round;stroke-dasharray:none"
       inkscape:label="circle"
       id="path1602"
       cx="280"
       cy="890"
       r="100" />
    <circle
       style="fill:none;stroke:#4c4c4c;stroke-width:0.5;stroke-linecap:round;stroke-linejoin:round;stroke-dasharray:none"
       inkscape:label="circle"
       id="path1604"
       cx="335"
       cy="890"
       r="45" />
    <path
       d="m 380,890 -0.37777,0.002 -1.13032,0.0154 -1.87401,0.0415 -2.60296,0.0802 -3.31146,0.1308 -3.99397,0.1926 -4.64512,0.2646 -5.25984,0.34567 -5.83333,0.4345 -6.36115,0.52968 -6.83919,0.62965 -7.26378,0.73275 -7.63168,0.83723 -7.94009,0.9413 -8.18671,1.04311 -8.36973,1.14079 -8.48785,1.23249 -8.54031,1.31636 -8.52687,1.39063 -8.44778,1.45358 -8.30389,1.5036 -8.09652,1.53919 -7.82747,1.55898 -7.49909,1.56179 -7.11415,1.54654 -6.67591,1.51243 -6.18797,1.4588 -5.6544,1.3852 -5.07958,1.29147 -4.46817,1.1776 -3.82519,1.04388 -3.15579,0.8908 -2.4654,0.7191 -1.75953,0.52978 -1.04382,0.32402 -0.32395,0.10328 0.39439,-0.13083 1.10556,-0.37642 1.804,-0.6315 2.48429,-0.89385 3.14118,-1.16114 3.76964,-1.43088 4.36491,-1.70051 4.92251,-1.96737 5.4383,-2.22873 5.9085,-2.48188 6.32974,-2.72406 6.69903,-2.95258 7.01385,-3.16475 7.27214,-3.35803 7.47229,-3.52994 7.61319,-3.67816 7.69419,-3.80053 7.71517,-3.89508 7.67646,-3.96003 7.57888,-3.99388 7.42373,-3.99534 7.21276,-3.96341 6.94815,-3.89739 6.63249,-3.79684 6.26878,-3.66167 5.86037,-3.49208 5.41093,-3.28862 4.92447,-3.05212 4.4052,-2.78378 3.85761,-2.48508 3.28634,-2.15782 2.69618,-1.80412 2.09206,-1.42634 1.47891,-1.02715 0.86172,-0.60944 0.24547,-0.17636 -0.36497,0.26878 -0.96479,0.72247 -1.54936,1.18105 -2.11419,1.64074 -2.65504,2.09771 -3.1679,2.54803 -3.64904,2.98779 -4.09505,3.41308 -4.50285,3.82003 -4.86971,4.2049 -5.19327,4.56402 -5.47158,4.89393 -5.70305,5.1913 -5.88655,5.4531 -6.02133,5.67645 -6.10708,5.85885 -6.14387,5.99806 -6.13219,6.09216 -6.07296,6.13962 -5.96741,6.13924 -5.81722,6.09024 -5.62436,5.99223 -5.39115,5.84522 -5.12018,5.64964 -4.81437,5.40633 -4.47685,5.11656 -4.11096,4.78197 -3.72022,4.40464 -3.30832,3.98701 -2.87905,3.53192 -2.43629,3.04252 -1.98394,2.5223 -1.52592,1.97507 -1.06615,1.40489 -0.60844,0.81609 -0.15656,0.21317 0.28589,-0.39917 0.71544,-1.01613 1.1288,-1.63277 1.5229,-2.24413 1.8949,-2.84522 2.2422,-3.43112 2.56251,-3.99691 2.85377,-4.53785 3.11429,-5.04933 3.34262,-5.52693 3.53768,-5.96646 3.6987,-6.36404 3.82523,-6.71603 3.91711,-7.01919 3.97457,-7.27063 3.99807,-7.46783 3.98841,-7.60873 3.94666,-7.6917 3.87414,-7.71554 3.77247,-7.67957 3.64345,-7.58356 3.4891,-7.42777 3.31162,-7.21297 3.11338,-6.94037 2.89687,-6.61172 2.6647,-6.22919 2.41951,-5.79542 2.16406,-5.31348 1.90106,-4.78687 1.63325,-4.21946 1.36336,-3.61546 1.09399,-2.97943 0.82771,-2.31621 0.56696,-1.63088 0.31405,-0.92875 0.0711,-0.21526 -0.15978,0.504 -0.37692,1.22336 -0.5787,1.93714 -0.76373,2.63967 -0.93085,3.32532 -1.07914,3.98862 -1.20795,4.62418 -1.31679,5.2269 -1.40549,5.79184 -1.47406,6.3144 -1.52276,6.79027 -1.5521,7.21553 -1.56274,7.5866 -1.55558,7.90039 -1.53173,8.15422 -1.49239,8.34588 -1.43899,8.47367 -1.37306,8.5364 -1.29622,8.53337 -1.21023,8.46446 -1.11686,8.33002 -1.01797,8.13095 -0.91542,7.8687 -0.81108,7.54518 -0.70677,7.16283 -0.6043,6.72455 -0.50538,6.23371 -0.41164,5.69408 -0.32462,5.10984 -0.2457,4.48555 -0.17615,3.82608 -0.11706,3.13656 -0.0694,2.42242 -0.0338,1.68924 -0.0108,0.94279 -9.6e-4,0.18893 -0.004,-0.56642 -0.0207,-1.31731 -0.05,-2.05785 -0.0917,-2.78222 -0.14524,-3.48474 -0.20969,-4.1599 -0.28406,-4.80241 -0.3672,-5.40726 -0.45776,-5.96974 -0.55429,-6.48547 -0.6552,-6.95048 -0.7588,-7.36119 -0.86336,-7.71446 -0.96704,-8.00761 -1.06799,-8.23849 -1.16435,-8.40538 -1.25426,-8.50715 -1.3359,-8.54312 -1.40749,-8.51323 -1.46736,-8.41784 -1.5139,-8.25794 -1.54567,-8.03495 -1.56133,-7.75083 -1.5597,-7.40804 -1.53981,-7.00946 -1.50087,-6.55843 -1.44228,-6.05869 -1.36366,-5.51439 -1.26488,-4.92996 -1.14602,-4.31019 -1.0074,-3.6601 -0.84959,-2.98495 -0.67338,-2.29017 -0.47983,-1.5813 -0.27018,-0.86402 -0.0459,-0.14401 0.19122,0.57308 0.43939,1.28158 0.69649,1.97598 0.96031,2.65091 1.22844,3.30115 1.49841,3.92175 1.76759,4.50801 2.03332,5.05553 2.2929,5.56026 2.54356,6.01853 2.78258,6.42703 3.00725,6.78293 3.21494,7.0838 3.40311,7.32768 3.5693,7.5131 3.71126,7.63907 3.82685,7.70506 3.91415,7.71106 3.97146,7.65754 3.99732,7.54543 3.99052,7.37615 3.95013,7.15154 3.8755,6.87391 3.76629,6.54594 3.62248,6.17073 3.44437,5.7517 3.23255,5.29263 2.98797,4.79756 2.71188,4.27078 2.40587,3.71682 2.07179,3.14038 1.71183,2.54627 1.32844,1.93942 0.92434,1.3248 0.50248,0.70738 0.0661,0.0921 -0.38154,-0.51611 -0.8368,-1.11255 -1.29602,-1.69258 -1.75539,-2.25181 -2.21107,-2.78603 -2.65911,-3.2913 -3.09562,-3.76396 -3.51668,-4.2007 -3.91847,-4.5985 -4.29723,-4.95474 -4.64937,-5.26716 -4.97144,-5.53388 -5.26021,-5.75346 -5.51264,-5.92484 -5.72598,-6.04737 -5.89779,-6.12085 -6.02588,-6.14547 -6.10845,-6.1218 -6.14404,-6.05085 -6.13157,-5.93398 -6.07034,-5.77292 -5.96006,-5.56974 -5.80086,-5.32684 -5.59324,-5.04688 -5.33819,-4.73284 -5.03703,-4.3879 -4.69156,-4.01545 -4.30391,-3.61909 -3.87664,-3.20248 -3.41265,-2.76947 -2.91521,-2.32395 -2.38787,-1.86981 -1.83451,-1.411 -1.25927,-0.95138 -0.6665,-0.49478 -0.0608,-0.0449 0.55317,0.39462 1.17051,0.82042 1.7863,1.22924 2.39556,1.61808 2.99332,1.98414 3.57463,2.32489 4.13466,2.63812 4.66866,2.92185 5.17207,3.17443 5.64054,3.39454 6.06994,3.58115 6.45644,3.73358 6.79652,3.85144 7.08701,3.9347 7.3251,3.9836 7.5084,3.99873 7.63496,3.98093 7.70323,3.93135 7.71218,3.85139 7.66119,3.74271 7.5502,3.60715 7.37957,3.4468 7.15017,3.26392 6.86339,3.06086 6.52104,2.8402 6.12544,2.60451 5.67932,2.35651 5.18587,2.0989 4.64869,1.83445 4.07171,1.56588 3.45927,1.29586 2.81598,1.02703 2.14675,0.76191 1.45671,0.50291 0.75122,0.25231 0.0358,0.0122 -0.68405,-0.21543 -1.40255,-0.42886 -2.11405,-0.62658 -2.81288,-0.80722 -3.49346,-0.96972 -4.15031,-1.1132 -4.77814,-1.23704 -5.37186,-1.34086 -5.92662,-1.42451 -6.43791,-1.48808 -6.90148,-1.53189 -7.3135,-1.55648 -7.67053,-1.56258 -7.96956,-1.55114 -8.20804,-1.52329 -8.38387,-1.4803 -8.49549,-1.42362 -8.54182,-1.3548 -8.52232,-1.27552 -8.43696,-1.1875 -8.28626,-1.09259 -8.07125,-0.9926 -7.79348,-0.88944 -7.455,-0.78492 -7.05838,-0.68091 -6.60663,-0.57917 -6.10322,-0.4814 -5.55202,-0.3892 -4.95735,-0.30407 -4.32378,-0.2274 -3.65631,-0.16036 -2.96012,-0.10403 -2.24068,-0.0593 -1.50364,-0.0268 -0.75479,-0.007 v -5.6e-4 l 0.75479,-0.007 1.50364,-0.0268 2.24068,-0.0593 2.96012,-0.10403 3.65631,-0.16036 4.32378,-0.2274 4.95735,-0.30407 5.55202,-0.3892 6.10322,-0.4814 6.60663,-0.57917 7.05838,-0.68091 7.455,-0.78492 7.79348,-0.88944 8.07125,-0.9926 8.28626,-1.09259 8.43696,-1.1875 8.52232,-1.27552 8.54182,-1.3548 8.49549,-1.42362 8.38387,-1.4803 8.20804,-1.52329 7.96956,-1.55114 7.67053,-1.56258 7.3135,-1.55648 6.90148,-1.53189 6.43791,-1.48808 5.92662,-1.42451 5.37186,-1.34086 4.77814,-1.23704 4.15031,-1.1132 3.49346,-0.96972 2.81288,-0.80722 2.11405,-0.62658 1.40255,-0.42886 0.68405,-0.21543 -0.0358,0.0122 -0.75122,0.25231 -1.45671,0.50291 -2.14675,0.76191 -2.81598,1.02703 -3.45927,1.29586 -4.07171,1.56588 -4.64869,1.83445 -5.18587,2.0989 -5.67932,2.35651 -6.12544,2.60451 -6.52104,2.8402 -6.86339,3.06086 -7.15017,3.26392 -7.37957,3.4468 -7.5502,3.60715 -7.66119,3.74271 -7.71218,3.85139 -7.70323,3.93135 -7.63496,3.98093 -7.5084,3.99873 -7.3251,3.9836 -7.08701,3.9347 -6.79652,3.85144 -6.45644,3.73358 -6.06994,3.58115 -5.64054,3.39454 -5.17207,3.17443 -4.66866,2.92185 -4.13466,2.63812 -3.57463,2.32489 -2.99332,1.98414 -2.39556,1.61808 -1.7863,1.22924 -1.17051,0.82042 -0.55317,0.39462 0.0608,-0.0449 0.6665,-0.49478 1.25927,-0.95138 1.83451,-1.411 2.38787,-1.86981 2.91521,-2.32395 3.41265,-2.76947 3.87664,-3.20248 4.30391,-3.61909 4.69156,-4.01545 5.03703,-4.3879 5.33819,-4.73284 5.59324,-5.04688 5.80086,-5.32684 5.96006,-5.56974 6.07034,-5.77292 6.13157,-5.93398 6.14404,-6.05085 6.10845,-6.1218 6.02588,-6.14547 5.89779,-6.12085 5.72598,-6.04737 5.51264,-5.92484 5.26021,-5.75346 4.97144,-5.53388 4.64937,-5.26716 4.29723,-4.95474 3.91847,-4.5985 3.51668,-4.2007 3.09562,-3.76396 2.65911,-3.2913 2.21107,-2.78603 1.75539,-2.25181 1.29602,-1.69258 0.8368,-1.11255 0.38154,-0.51611 -0.0661,0.0921 -0.50248,0.70738 -0.92434,1.3248 -1.32844,1.93942 -1.71183,2.54627 -2.07179,3.14038 -2.40587,3.71682 -2.71188,4.27078 -2.98797,4.79756 -3.23255,5.29263 -3.44437,5.7517 -3.62248,6.17073 -3.76629,6.54594 -3.8755,6.87391 -3.95013,7.15154 -3.99052,7.37615 -3.99732,7.54543 -3.97146,7.65754 -3.91415,7.71106 -3.82685,7.70506 -3.71126,7.63907 -3.5693,7.5131 -3.40311,7.32768 -3.21494,7.0838 -3.00725,6.78293 -2.78258,6.42703 -2.54356,6.01853 -2.2929,5.56026 -2.03332,5.05553 -1.76759,4.50801 -1.49841,3.92175 -1.22844,3.30115 -0.96031,2.65091 -0.69649,1.97598 -0.43939,1.28158 -0.19122,0.57308 0.0459,-0.14401 0.27018,-0.86402 0.47983,-1.5813 0.67338,-2.29017 0.84959,-2.98495 1.0074,-3.6601 1.14602,-4.31019 1.26488,-4.92996 1.36366,-5.51439 1.44228,-6.05869 1.50087,-6.55843 1.53981,-7.00946 1.5597,-7.40804 1.56133,-7.75083 1.54567,-8.03495 1.5139,-8.25794 1.46736,-8.41784 1.40749,-8.51323 1.3359,-8.54312 1.25426,-8.50715 1.16435,-8.40538 1.06799,-8.23849 0.96704,-8.00761 0.86336,-7.71446 0.7588,-7.36119 0.6552,-6.95048 0.55429,-6.48547 0.45776,-5.96974 0.3672,-5.40726 0.28406,-4.80241 0.20969,-4.1599 0.14524,-3.48474 0.0917,-2.78222 0.05,-2.05785 0.0207,-1.31731 0.004,-0.56642 9.6e-4,0.18893 0.0108,0.94279 0.0338,1.68924 0.0694,2.42242 0.11706,3.13656 0.17615,3.82608 0.2457,4.48555 0.32462,5.10984 0.41164,5.69408 0.50538,6.23371 0.6043,6.72455 0.70677,7.16283 0.81108,7.54518 0.91542,7.8687 1.01797,8.13095 1.11686,8.33002 1.21023,8.46446 1.29622,8.53337 1.37306,8.5364 1.43899,8.47367 1.49239,8.34588 1.53173,8.15422 1.55558,7.90039 1.56274,7.5866 1.5521,7.21553 1.52276,6.79027 1.47406,6.3144 1.40549,5.79184 1.31679,5.2269 1.20795,4.62418 1.07914,3.98862 0.93085,3.32532 0.76373,2.63967 0.5787,1.93714 0.37692,1.22336 0.15978,0.504 -0.0711,-0.21526 -0.31405,-0.92875 -0.56696,-1.63088 -0.82771,-2.31621 -1.09399,-2.97943 -1.36336,-3.61546 -1.63325,-4.21946 -1.90106,-4.78687 -2.16406,-5.31348 -2.41951,-5.79542 -2.6647,-6.22919 -2.89687,-6.61172 -3.11338,-6.94037 -3.31162,-7.21297 -3.4891,-7.42777 -3.64345,-7.58356 -3.77247,-7.67957 -3.87414,-7.71554 -3.94666,-7.6917 -3.98841,-7.60873 -3.99807,-7.46783 -3.97457,-7.27063 -3.91711,-7.01919 -3.82523,-6.71603 -3.6987,-6.36404 -3.53768,-5.96646 -3.34262,-5.52693 -3.11429,-5.04933 -2.85377,-4.53785 -2.56251,-3.99691 -2.2422,-3.43112 -1.8949,-2.84522 -1.5229,-2.24413 -1.1288,-1.63277 -0.71544,-1.01613 -0.28589,-0.39917 0.15656,0.21317 0.60844,0.81609 1.06615,1.40489 1.52592,1.97507 1.98394,2.5223 2.43629,3.04252 2.87905,3.53192 3.30832,3.98701 3.72022,4.40464 4.11096,4.78197 4.47685,5.11656 4.81437,5.40633 5.12018,5.64964 5.39115,5.84522 5.62436,5.99223 5.81722,6.09024 5.96741,6.13924 6.07296,6.13962 6.13219,6.09216 6.14387,5.99806 6.10708,5.85885 6.02133,5.67645 5.88655,5.4531 5.70305,5.1913 5.47158,4.89393 5.19327,4.56402 4.86971,4.2049 4.50285,3.82003 4.09505,3.41308 3.64904,2.98779 3.1679,2.54803 2.65504,2.09771 2.11419,1.64074 1.54936,1.18105 0.96479,0.72247 0.36497,0.26878 -0.24547,-0.17636 -0.86172,-0.60944 -1.47891,-1.02715 -2.09206,-1.42634 -2.69618,-1.80412 -3.28634,-2.15782 -3.85761,-2.48508 -4.4052,-2.78378 -4.92447,-3.05212 -5.41093,-3.28862 -5.86037,-3.49208 -6.26878,-3.66167 -6.63249,-3.79684 -6.94815,-3.89739 -7.21276,-3.96341 -7.42373,-3.99534 -7.57888,-3.99388 -7.67646,-3.96003 -7.71517,-3.89508 -7.69419,-3.80053 -7.61319,-3.67816 -7.47229,-3.52994 -7.27214,-3.35803 -7.01385,-3.16475 -6.69903,-2.95258 -6.32974,-2.72406 -5.9085,-2.48188 -5.4383,-2.22873 -4.92251,-1.96737 -4.36491,-1.70051 -3.76964,-1.43088 -3.14118,-1.16114 -2.48429,-0.89385 -1.804,-0.6315 -1.10556,-0.37642 -0.39439,-0.13083 0.32395,0.10328 1.04382,0.32402 1.75953,0.52978 2.4654,0.7191 3.15579,0.8908 3.82519,1.04388 4.46817,1.1776 5.07958,1.29147 5.6544,1.3852 6.18797,1.4588 6.67591,1.51243 7.11415,1.54654 7.49909,1.56179 7.82747,1.55898 8.09652,1.53919 8.30389,1.5036 8.44778,1.45358 8.52687,1.39063 8.54031,1.31636 8.48785,1.23249 8.36973,1.14079 8.18671,1.04311 7.94009,0.9413 7.63168,0.83723 7.26378,0.73275 6.83919,0.62965 6.36115,0.52968 5.83333,0.4345 5.25984,0.34567 4.64512,0.2646 3.99397,0.1926 3.31146,0.1308 2.60296,0.0802 1.87401,0.0415 1.13032,0.0154 z"
       style="fill:none;stroke:#ff0000;stroke-width:0.8;stroke-linecap:round;stroke-linejoin:round;stroke-dasharray:none"
       inkscape:label="spiro"
       id="path1606" />
  </g>
  <g
     inkscape:label="Spiro"
     id="g1659"
     transform="translate(-79.353205,183.16978)"
     inkscape:export-xdpi="198.87013"
     inkscape:export-ydpi="198.87013">
    <circle
       style="fill:none;stroke:#4c4c4c;stroke-width:0.5;stroke-linecap:round;stroke-linejoin:round;stroke-dasharray:none"
       inkscape:label="circle"
       id="path1653"
       cx="280"
       cy="810"
       r="100" />
    <circle
       style="fill:none;stroke:#4c4c4c;stroke-width:0.5;stroke-linecap:round;stroke-linejoin:round;stroke-dasharray:none"
       inkscape:label="circle"
       id="path1655"
       cx="335"
       cy="810"
       r="45" />
    <path
       d="m 355,810 -0.26235,2.40167 -0.78515,2.39267 -1.30225,2.37469 -1.8099,2.34772 -2.30443,2.31178 -2.78226,2.26685 -3.23992,2.21298 -3.67412,2.15017 -4.08175,2.0785 -4.45986,1.99796 -4.80575,1.90867 -5.11697,1.81069 -5.39133,1.70416 -5.62687,1.5892 -5.82198,1.466 -5.97533,1.33476 -6.0859,1.19575 -6.15296,1.04926 -6.17618,0.89562 -6.15546,0.73525 -6.0911,0.56857 -5.98367,0.39609 -5.8341,0.21838 -5.64359,0.036 -5.41366,-0.15024 -5.14611,-0.33973 -4.84302,-0.53164 -4.50669,-0.72513 -4.13971,-0.91929 -3.74484,-1.11315 -3.32504,-1.30572 -2.88348,-1.49595 -2.42341,-1.68277 -1.94827,-1.86504 -1.46154,-2.04162 -0.9668,-2.21136 -0.46763,-2.37306 0.0323,-2.52559 0.52942,-2.66772 1.02017,-2.79835 1.50102,-2.91631 1.9686,-3.02054 2.41961,-3.10996 2.85091,-3.1836 3.25953,-3.24053 3.64268,-3.27989 3.99779,-3.30091 4.32247,-3.30295 4.61465,-3.28541 4.87242,-3.24786 5.09424,-3.18996 5.27873,-3.1115 5.42491,-3.01243 5.532,-2.89281 5.59956,-2.75285 5.62744,-2.59294 5.61576,-2.41357 5.56496,-2.21542 5.47571,-1.99931 5.34903,-1.7662 5.18614,-1.51723 4.98855,-1.25362 4.75799,-0.97682 4.49642,-0.68833 4.206,-0.38981 3.88909,-0.083 3.54822,0.2301 3.18606,0.54765 2.80538,0.86755 2.4091,1.18768 2.00021,1.50589 1.58171,1.81994 1.15672,2.12761 0.72827,2.42667 0.29945,2.71487 -0.12669,2.99005 -0.54722,3.25003 -0.9592,3.49273 -1.35988,3.71613 -1.74655,3.91834 -2.1167,4.09757 -2.46793,4.25212 -2.79805,4.38052 -3.10502,4.48138 -3.38702,4.55352 -3.64243,4.59597 -3.86984,4.60789 -4.06807,4.58873 -4.23618,4.5381 -4.37344,4.45584 -4.47937,4.34205 -4.55372,4.19702 -4.59646,4.0213 -4.60781,3.81568 -4.58818,3.58115 -4.53824,3.31895 -4.45881,3.03056 -4.35095,2.71761 -4.21589,2.38202 -4.055,2.02585 -3.86988,1.65133 -3.6622,1.26092 -3.43378,0.85716 -3.18657,0.44277 -2.9226,0.0206 -2.64396,-0.40653 -2.35283,-0.83554 -2.05142,-1.2634 -1.74193,-1.68707 -1.42664,-2.10345 -1.10775,-2.50948 -0.78747,-2.90212 -0.46796,-3.27844 -0.15132,-3.63555 0.16041,-3.97067 0.46529,-4.28118 0.76146,-4.5646 1.04717,-4.81862 1.32082,-5.04111 1.58089,-5.23018 1.82602,-5.38415 2.05497,-5.50157 2.26668,-5.58129 2.4602,-5.62237 2.63476,-5.62419 2.78974,-5.58639 2.92463,-5.50892 3.03912,-5.39201 3.13305,-5.23617 3.20636,-5.04223 3.25914,-4.8113 3.29165,-4.54475 3.30426,-4.24428 3.29741,-3.91177 3.27174,-3.54942 3.22791,-3.15966 3.16673,-2.7451 3.08904,-2.30858 2.99583,-1.85313 2.88807,-1.38193 2.76684,-0.89827 2.63322,-0.4056 2.48838,0.0925 2.33346,0.59265 2.16963,1.09103 1.99807,1.58412 1.81996,2.06828 1.63644,2.53998 1.44868,2.99573 1.25775,3.43216 1.06477,3.84601 0.87073,4.23418 0.67666,4.59375 0.48349,4.922 0.2921,5.21642 0.10333,5.47475 -0.082,5.69497 -0.26327,5.87539 -0.43972,6.01452 -0.6108,6.11125 -0.77595,6.16475 -0.93468,6.17449 -1.08657,6.1403 -1.23122,6.06231 -1.36831,5.94097 -1.49756,5.77708 -1.61872,5.57171 -1.73158,5.3263 -1.836,5.04255 -1.93181,4.72244 -2.01892,4.36824 -2.09725,3.9825 -2.16671,3.56795 -2.22728,3.12758 -2.27893,2.66456 -2.3216,2.18222 -2.3553,1.68408 -2.38003,1.17371 -2.39577,0.65484 -2.40251,0.1312 -2.40026,-0.39337 -2.38902,-0.91511 -2.36879,-1.43019 -2.33958,-1.93491 -2.30138,-2.42559 -2.25422,-2.89869 -2.19812,-3.3508 -2.13308,-3.77864 -2.05919,-4.17915 -1.97646,-4.54945 -1.88498,-4.8869 -1.78486,-5.1891 -1.6762,-5.45392 -1.55917,-5.67949 -1.43393,-5.86428 -1.30073,-6.00702 -1.15982,-6.10676 -1.0115,-6.16289 -0.85614,-6.17511 -0.69415,-6.14344 -0.52597,-6.06825 -0.35214,-5.95019 -0.1732,-5.79025 0.0102,-5.58974 0.19735,-5.35023 0.38751,-5.07358 0.57991,-4.76195 0.77364,-4.41772 0.96781,-4.04349 1.16146,-3.64211 1.35354,-3.21657 1.54302,-2.77006 1.72881,-2.30591 1.90976,-1.82753 2.08474,-1.33847 2.25258,-0.84227 2.41211,-0.34259 2.56213,0.15699 2.70151,0.65285 2.82907,1.14144 2.9437,1.61929 3.04432,2.08303 3.12989,2.5294 3.19943,2.9553 3.25205,3.35781 3.28689,3.73419 3.30323,4.08189 3.30041,4.39864 3.27792,4.68239 3.2353,4.9313 3.17227,5.1439 3.08867,5.31891 2.98444,5.45537 2.85972,5.55261 2.71473,5.61025 2.5499,5.62822 2.36576,5.6067 2.16304,5.54621 1.94259,5.44751 1.7054,5.31165 1.45264,5.13993 1.1856,4.93393 0.90573,4.69542 0.61457,4.42643 0.31382,4.12916 0.005,3.80602 -0.30916,3.45957 -0.62748,3.09251 -0.94764,2.70766 -1.26751,2.30794 -1.58487,1.89637 -1.89754,1.47595 -2.20328,1.04981 -2.49982,0.62098 -2.78498,0.19255 -3.05655,-0.23247 -3.3124,-0.65112 -3.55046,-1.06054 -3.76875,-1.45796 -3.96537,-1.84073 -4.13858,-2.20637 -4.28673,-2.55253 -4.40836,-2.87703 -4.50215,-3.17793 -4.56695,-3.45343 -4.60184,-3.70195 -4.60603,-3.92218 -4.57904,-4.11295 -4.52049,-4.27341 -4.43035,-4.40287 -4.3087,-4.50093 -4.15594,-4.56736 -3.97267,-4.60223 -3.75971,-4.60578 -3.51814,-4.57851 -3.24925,-4.52111 -2.95455,-4.43447 -2.63576,-4.31968 -2.29482,-4.17802 -1.93384,-4.01094 -1.55513,-3.82 -1.16113,-3.60696 -0.75445,-3.37367 -0.33784,-3.12207 0.0859,-2.85423 0.51372,-2.57226 0.94273,-2.27836 1.36983,-1.97471 1.79197,-1.66357 2.20605,-1.34717 2.609,-1.02772 2.99785,-0.70743 3.36963,-0.38845 3.72149,-0.0729 4.05071,0.23734 4.35467,0.54022 4.63095,0.83393 4.87727,1.11678 5.09158,1.38717 5.27203,1.64362 5.41698,1.88481 5.52508,2.10956 5.59521,2.31679 5.62652,2.50565 5.61846,2.67536 5.57074,2.82536 5.48338,2.95518 5.35666,3.06454 5.19122,3.1533 4.98792,3.22147 4.74794,3.26916 4.47275,3.29666 4.16407,3.30434 3.82389,3.29274 3.45445,3.26245 3.05824,3.21421 2.63791,3.14881 2.19638,3.06717 1.73668,2.97021 1.26204,2.85898 0.77581,2.73455 0.28144,2.59802 -0.21754,2.45055 -0.71754,2.29329 -1.21494,2.12741 -1.70613,1.95412 -2.18752,1.77454 -2.65554,1.58986 -3.10678,1.40119 -3.53786,1.20966 -3.94558,1.01632 -4.32687,0.82218 -4.67885,0.62825 -4.99887,0.43544 -5.28447,0.24463 -5.53344,0.0566 -5.74388,-0.12775 -5.91408,-0.30786 -6.04272,-0.48302 -6.1287,-0.65266 -6.1713,-0.81625 -6.17007,-0.97331 -6.1249,-1.12342 -6.03601,-1.26621 -5.90395,-1.40137 -5.72957,-1.52862 -5.51405,-1.64772 -5.25889,-1.75849 -4.96584,-1.86076 -4.63699,-1.95441 -4.27467,-2.03932 -3.88144,-2.11545 -3.46016,-2.18269 -3.01382,-2.24103 -2.54565,-2.29043 -2.05903,-2.33087 -1.55749,-2.36233 -1.04465,-2.38481 -0.52422,-2.39829 v -2.4028 l 0.52422,-2.39829 1.04465,-2.38481 1.55749,-2.36233 2.05903,-2.33087 2.54565,-2.29043 3.01382,-2.24103 3.46016,-2.18269 3.88144,-2.11545 4.27467,-2.03932 4.63699,-1.95441 4.96584,-1.86076 5.25889,-1.75849 5.51405,-1.64772 5.72957,-1.52862 5.90395,-1.40137 6.03601,-1.26621 6.1249,-1.12342 6.17007,-0.97331 6.1713,-0.81625 6.1287,-0.65266 6.04272,-0.48302 5.91408,-0.30786 5.74388,-0.12775 5.53344,0.0566 5.28447,0.24463 4.99887,0.43544 4.67885,0.62825 4.32687,0.82218 3.94558,1.01632 3.53786,1.20966 3.10678,1.40119 2.65554,1.58986 2.18752,1.77454 1.70613,1.95412 1.21494,2.12741 0.71754,2.29329 0.21754,2.45055 -0.28144,2.59802 -0.77581,2.73455 -1.26204,2.85898 -1.73668,2.97021 -2.19638,3.06717 -2.63791,3.14881 -3.05824,3.21421 -3.45445,3.26245 -3.82389,3.29274 -4.16407,3.30434 -4.47275,3.29666 -4.74794,3.26916 -4.98792,3.22147 -5.19122,3.1533 -5.35666,3.06454 -5.48338,2.95518 -5.57074,2.82536 -5.61846,2.67536 -5.62652,2.50565 -5.59521,2.31679 -5.52508,2.10956 -5.41698,1.88481 -5.27203,1.64362 -5.09158,1.38717 -4.87727,1.11678 -4.63095,0.83393 -4.35467,0.54022 -4.05071,0.23734 -3.72149,-0.0729 -3.36963,-0.38845 -2.99785,-0.70743 -2.609,-1.02772 -2.20605,-1.34717 -1.79197,-1.66357 -1.36983,-1.97471 -0.94273,-2.27836 -0.51372,-2.57226 -0.0859,-2.85423 0.33784,-3.12207 0.75445,-3.37367 1.16113,-3.60696 1.55513,-3.82 1.93384,-4.01094 2.29482,-4.17802 2.63576,-4.31968 2.95455,-4.43447 3.24925,-4.52111 3.51814,-4.57851 3.75971,-4.60578 3.97267,-4.60223 4.15594,-4.56736 4.3087,-4.50093 4.43035,-4.40287 4.52049,-4.27341 4.57904,-4.11295 4.60603,-3.92218 4.60184,-3.70195 4.56695,-3.45343 4.50215,-3.17793 4.40836,-2.87703 4.28673,-2.55253 4.13858,-2.20637 3.96537,-1.84073 3.76875,-1.45796 3.55046,-1.06054 3.3124,-0.65112 3.05655,-0.23247 2.78498,0.19255 2.49982,0.62098 2.20328,1.04981 1.89754,1.47595 1.58487,1.89637 1.26751,2.30794 0.94764,2.70766 0.62748,3.09251 0.30916,3.45957 -0.005,3.80602 -0.31382,4.12916 -0.61457,4.42643 -0.90573,4.69542 -1.1856,4.93393 -1.45264,5.13993 -1.7054,5.31165 -1.94259,5.44751 -2.16304,5.54621 -2.36576,5.6067 -2.5499,5.62822 -2.71473,5.61025 -2.85972,5.55261 -2.98444,5.45537 -3.08867,5.31891 -3.17227,5.1439 -3.2353,4.9313 -3.27792,4.68239 -3.30041,4.39864 -3.30323,4.08189 -3.28689,3.73419 -3.25205,3.35781 -3.19943,2.9553 -3.12989,2.5294 -3.04432,2.08303 -2.9437,1.61929 -2.82907,1.14144 -2.70151,0.65285 -2.56213,0.15699 -2.41211,-0.34259 -2.25258,-0.84227 -2.08474,-1.33847 -1.90976,-1.82753 -1.72881,-2.30591 -1.54302,-2.77006 -1.35354,-3.21657 -1.16146,-3.64211 -0.96781,-4.04349 -0.77364,-4.41772 -0.57991,-4.76195 -0.38751,-5.07358 -0.19735,-5.35023 -0.0102,-5.58974 0.1732,-5.79025 0.35214,-5.95019 0.52597,-6.06825 0.69415,-6.14344 0.85614,-6.17511 1.0115,-6.16289 1.15982,-6.10676 1.30073,-6.00702 1.43393,-5.86428 1.55917,-5.67949 1.6762,-5.45392 1.78486,-5.1891 1.88498,-4.8869 1.97646,-4.54945 2.05919,-4.17915 2.13308,-3.77864 2.19812,-3.3508 2.25422,-2.89869 2.30138,-2.42559 2.33958,-1.93491 2.36879,-1.43019 2.38902,-0.91511 2.40026,-0.39337 2.40251,0.1312 2.39577,0.65484 2.38003,1.17371 2.3553,1.68408 2.3216,2.18222 2.27893,2.66456 2.22728,3.12758 2.16671,3.56795 2.09725,3.9825 2.01892,4.36824 1.93181,4.72244 1.836,5.04255 1.73158,5.3263 1.61872,5.57171 1.49756,5.77708 1.36831,5.94097 1.23122,6.06231 1.08657,6.1403 0.93468,6.17449 0.77595,6.16475 0.6108,6.11125 0.43972,6.01452 0.26327,5.87539 0.082,5.69497 -0.10333,5.47475 -0.2921,5.21642 -0.48349,4.922 -0.67666,4.59375 -0.87073,4.23418 -1.06477,3.84601 -1.25775,3.43216 -1.44868,2.99573 -1.63644,2.53998 -1.81996,2.06828 -1.99807,1.58412 -2.16963,1.09103 -2.33346,0.59265 -2.48838,0.0925 -2.63322,-0.4056 -2.76684,-0.89827 -2.88807,-1.38193 -2.99583,-1.85313 -3.08904,-2.30858 -3.16673,-2.7451 -3.22791,-3.15966 -3.27174,-3.54942 -3.29741,-3.91177 -3.30426,-4.24428 -3.29165,-4.54475 -3.25914,-4.8113 -3.20636,-5.04223 -3.13305,-5.23617 -3.03912,-5.39201 -2.92463,-5.50892 -2.78974,-5.58639 -2.63476,-5.62419 -2.4602,-5.62237 -2.26668,-5.58129 -2.05497,-5.50157 -1.82602,-5.38415 -1.58089,-5.23018 -1.32082,-5.04111 -1.04717,-4.81862 -0.76146,-4.5646 -0.46529,-4.28118 -0.16041,-3.97067 0.15132,-3.63555 0.46796,-3.27844 0.78747,-2.90212 1.10775,-2.50948 1.42664,-2.10345 1.74193,-1.68707 2.05142,-1.2634 2.35283,-0.83554 2.64396,-0.40653 2.9226,0.0206 3.18657,0.44277 3.43378,0.85716 3.6622,1.26092 3.86988,1.65133 4.055,2.02585 4.21589,2.38202 4.35095,2.71761 4.45881,3.03056 4.53824,3.31895 4.58818,3.58115 4.60781,3.81568 4.59646,4.0213 4.55372,4.19702 4.47937,4.34205 4.37344,4.45584 4.23618,4.5381 4.06807,4.58873 3.86984,4.60789 3.64243,4.59597 3.38702,4.55352 3.10502,4.48138 2.79805,4.38052 2.46793,4.25212 2.1167,4.09757 1.74655,3.91834 1.35988,3.71613 0.9592,3.49273 0.54722,3.25003 0.12669,2.99005 -0.29945,2.71487 -0.72827,2.42667 -1.15672,2.12761 -1.58171,1.81994 -2.00021,1.50589 -2.4091,1.18768 -2.80538,0.86755 -3.18606,0.54765 -3.54822,0.2301 -3.88909,-0.083 -4.206,-0.38981 -4.49642,-0.68833 -4.75799,-0.97682 -4.98855,-1.25362 -5.18614,-1.51723 -5.34903,-1.7662 -5.47571,-1.99931 -5.56496,-2.21542 -5.61576,-2.41357 -5.62744,-2.59294 -5.59956,-2.75285 -5.532,-2.89281 -5.42491,-3.01243 -5.27873,-3.1115 -5.09424,-3.18996 -4.87242,-3.24786 -4.61465,-3.28541 -4.32247,-3.30295 -3.99779,-3.30091 -3.64268,-3.27989 -3.25953,-3.24053 -2.85091,-3.1836 -2.41961,-3.10996 -1.9686,-3.02054 -1.50102,-2.91631 -1.02017,-2.79835 -0.52942,-2.66772 -0.0323,-2.52559 0.46763,-2.37306 0.9668,-2.21136 1.46154,-2.04162 1.94827,-1.86504 2.42341,-1.68277 2.88348,-1.49595 3.32504,-1.30572 3.74484,-1.11315 4.13971,-0.91929 4.50669,-0.72513 4.84302,-0.53164 5.14611,-0.33973 5.41366,-0.15024 5.64359,0.036 5.8341,0.21838 5.98367,0.39609 6.0911,0.56857 6.15546,0.73525 6.17618,0.89562 6.15296,1.04926 6.0859,1.19575 5.97533,1.33476 5.82198,1.466 5.62687,1.5892 5.39133,1.70416 5.11697,1.81069 4.80575,1.90867 4.45986,1.99796 4.08175,2.0785 3.67412,2.15017 3.23992,2.21298 2.78226,2.26685 2.30443,2.31178 1.8099,2.34772 1.30225,2.37469 0.78515,2.39267 z"
       style="fill:none;stroke:#ff0000;stroke-width:0.8;stroke-linecap:round;stroke-linejoin:round;stroke-dasharray:none"
       inkscape:label="spiro"
       id="path1657" />
  </g>
  <text
     xml:space="preserve"
     style="font-size:24px;line-height:1.25;font-family:sans-serif;-inkscape-font-specification:sans-serif;text-align:center;text-anchor:middle"
     x="200"
     y="880"
     id="text1506-7"
     inkscape:export-xdpi="198.87013"
     inkscape:export-ydpi="198.87013"><tspan
       sodipodi:role="line"
       id="tspan1504-5"
       x="200"
       y="880">R=100 r=45 d=20</tspan></text>
  <text
     xml:space="preserve"
     style="font-style:normal;font-variant:normal;font-weight:normal;font-stretch:normal;font-size:24px;line-height:1.25;font-family:sans-serif;-inkscape-font-specification:sans-serif;font-variant-ligatures:normal;font-variant-position:normal;font-variant-caps:normal;font-variant-numeric:normal;font-variant-alternates:normal;font-variant-east-asian:normal;font-feature-settings:normal;font-variation-settings:normal;text-indent:0;text-align:center;text-decoration:none;text-decoration-line:none;text-decoration-style:solid;text-decoration-color:#000000;letter-spacing:normal;word-spacing:normal;text-transform:none;writing-mode:lr-tb;direction:ltr;text-orientation:mixed;dominant-baseline:auto;baseline-shift:baseline;text-anchor:middle;white-space:normal;shape-padding:0;shape-margin:0;inline-size:0;opacity:1;vector-effect:none;fill:#000000;fill-opacity:1;stroke-width:1;stroke-linecap:butt;stroke-linejoin:miter;stroke-miterlimit:4;stroke-dasharray:none;stroke-dashoffset:0;stroke-opacity:1;stop-color:#000000;stop-opacity:1"
     x="200"
     y="630"
     id="text1506-7-3"
     transform="translate(0,-30)"
     inkscape:export-xdpi="198.87013"
     inkscape:export-ydpi="198.87013"><tspan
       sodipodi:role="line"
       id="tspan1504-5-5"
       x="200"
       y="630">R=100 r=45 d=45</tspan></text>
  <g
     inkscape:label="Spiro"
     id="g1766"
     transform="translate(232.40582,72.062101)"
     inkscape:export-xdpi="198.87013"
     inkscape:export-ydpi="198.87013">
    <circle
       style="fill:none;stroke:#4c4c4c;stroke-width:0.5;stroke-linecap:round;stroke-linejoin:round;stroke-dasharray:none"
       inkscape:label="circle"
       id="path1760"
       cx="280"
       cy="180"
       r="80" />
    <circle
       style="fill:none;stroke:#4c4c4c;stroke-width:0.5;stroke-linecap:round;stroke-linejoin:round;stroke-dasharray:none"
       inkscape:label="circle"
       id="path1762"
       cx="380"
       cy="180"
       r="20" />
    <path
       d="m 360,180 1.24457,0.19959 3.49212,1.35818 5.05297,3.48701 5.59,6.23883 4.92743,9.16183 3.07875,11.77017 0.24517,13.62013 -3.21517,14.37949 -6.84257,13.87973 -10.14709,12.14257 -12.68443,9.377 -14.12485,5.94706 -14.30426,2.31536 -13.24938,-1.02855 -11.17327,-3.64413 -8.44174,-5.20813 -5.51602,-5.56445 -2.88055,-4.748 -0.96717,-2.97858 -0.0876,-0.62612 -0.38489,1.84772 -1.81061,3.96222 -4.13293,5.29314 -6.97252,5.53962 -9.86204,4.57167 -12.31912,2.45103 -13.92189,-0.57788 -14.37509,-4.12556 -13.55632,-7.71769 -11.53566,-10.86866 -8.56491,-13.1569 -5.03879,-14.29022 -1.43378,-14.15095 1.76581,-12.81405 4.14295,-10.53492 5.4124,-7.7094 5.46469,-4.81161 4.38271,-2.31982 2.42814,-0.64163 v -0.0502 l -2.42814,-0.64163 -4.38271,-2.31982 -5.46469,-4.81161 -5.4124,-7.7094 -4.14295,-10.53492 -1.76581,-12.81405 1.43378,-14.15095 5.03879,-14.29022 8.56491,-13.1569 11.53566,-10.86866 13.55632,-7.717685 14.37509,-4.12556 13.92189,-0.577885 12.31912,2.451025 9.86204,4.571671 6.97252,5.539627 4.13293,5.293142 1.81061,3.962214 0.38489,1.847721 0.0876,-0.626124 0.96717,-2.978579 2.88055,-4.747993 5.51602,-5.564457 8.44174,-5.20813 11.17327,-3.644128 13.24938,-1.028544 14.30426,2.315357 14.12485,5.947055 12.68443,9.377008 10.14709,12.142565 6.84257,13.87973 3.21517,14.37949 -0.24517,13.62013 -3.07875,11.77017 -4.92743,9.16183 -5.59,6.23883 -5.05297,3.48701 -3.49212,1.35818 z"
       style="fill:none;stroke:#ff0000;stroke-width:0.8;stroke-linecap:round;stroke-linejoin:round;stroke-dasharray:none"
       inkscape:label="spiro"
       id="path1764" />
  </g>
  <text
     xml:space="preserve"
     style="font-style:normal;font-variant:normal;font-weight:normal;font-stretch:normal;font-size:24px;line-height:1.25;font-family:sans-serif;-inkscape-font-specification:sans-serif;font-variant-ligatures:normal;font-variant-position:normal;font-variant-caps:normal;font-variant-numeric:normal;font-variant-alternates:normal;font-variant-east-asian:normal;font-feature-settings:normal;font-variation-settings:normal;text-indent:0;text-align:center;text-decoration:none;text-decoration-line:none;text-decoration-style:solid;text-decoration-color:#000000;letter-spacing:normal;word-spacing:normal;text-transform:none;writing-mode:lr-tb;direction:ltr;text-orientation:mixed;dominant-baseline:auto;baseline-shift:baseline;text-anchor:middle;white-space:normal;shape-padding:0;shape-margin:0;inline-size:0;opacity:1;vector-effect:none;fill:#000000;fill-opacity:1;stroke-width:1;stroke-linecap:butt;stroke-linejoin:miter;stroke-miterlimit:4;stroke-dasharray:none;stroke-dashoffset:0;stroke-opacity:1;stop-color:#000000;stop-opacity:1"
     x="510"
     y="20"
     id="text1506-6"
     transform="translate(10,100)"
     inkscape:export-xdpi="198.87013"
     inkscape:export-ydpi="198.87013"><tspan
       sodipodi:role="line"
       id="tspan1504-2"
       x="510"
       y="20">R=80 r=20 d=20</tspan></text>
  <g
     inkscape:label="Spiro"
     id="g1920"
     transform="translate(240.38002,284.18241)"
     inkscape:export-xdpi="198.87013"
     inkscape:export-ydpi="198.87013">
    <circle
       style="fill:none;stroke:#4c4c4c;stroke-width:0.5;stroke-linecap:round;stroke-linejoin:round;stroke-dasharray:none"
       inkscape:label="circle"
       id="path1914"
       cx="280"
       cy="290"
       r="80" />
    <circle
       style="fill:none;stroke:#4c4c4c;stroke-width:0.5;stroke-linecap:round;stroke-linejoin:round;stroke-dasharray:none"
       inkscape:label="circle"
       id="path1916"
       cx="385"
       cy="290"
       r="25" />
    <path
       d="m 345,290 1.84201,-4.72917 5.29317,-3.37289 8.07124,-0.81255 9.80952,2.664 10.25499,6.66445 9.29621,10.73469 6.97566,14.40817 3.48564,17.25655 -0.85229,18.93635 -5.62178,19.2264 -10.35641,18.05199 -14.59007,15.4933 -17.907,11.77696 -19.98671,7.25182 -20.63844,2.35151 -19.82155,-2.45229 -17.64984,-6.70049 -14.37897,-9.996 -10.37872,-12.0464 -6.09272,-12.69519 -1.99039,-11.93835 1.48395,-9.92435 3.95933,-6.9377 5.17816,-3.36765 5.02418,0.33435 3.53491,3.70403 0.89749,6.31494 -2.57182,7.82507 -6.462,8.01429 -10.31216,6.80853 -13.66158,4.28816 -16.10004,0.67956 -17.3125,-3.66906 -17.11351,-8.32521 -15.46776,-12.81868 -12.49417,-16.6923 -8.45337,-19.55134 -3.7199,-21.10606 1.25807,-21.20303 6.0068,-19.84164 10.07802,-17.17415 13.09699,-13.48906 14.80282,-9.18 15.07619,-4.70295 13.95199,-0.52702 11.61508,2.91636 8.3799,5.28001 4.65596,6.33853 0.90318,6.01244 -2.41839,4.37668 -4.89864,1.65216 -6.22229,-1.81844 -6.20324,-5.60801 -4.80501,-9.25175 -2.14501,-12.29774 1.51808,-14.35638 5.81204,-15.14288 10.29144,-14.50859 14.48564,-12.45742 17.94977,-9.1459 20.3129,-4.86653 21.31815,-0.0166 20.85059,4.94452 18.94968,9.54474 15.8051,13.35001 11.73626,16.01091 7.15789,17.30018 2.53515,17.13692 -1.66646,15.59506 -5.03143,12.89491 -7.23897,9.37905 -8.09751,5.47481 -7.56514,1.64776 -5.75388,-1.64912 -2.9172,-4.02459 0.57786,-5.19197 4.29079,-5.0002 7.75569,-3.45048 10.53222,-0.6962 12.25372,2.97356 12.66728,7.16529 11.66163,11.42373 9.27956,15.28113 5.71373,18.30801 1.28619,20.15981 -3.58614,20.61427 -8.43625,19.59567 -12.79728,17.18323 -16.25268,13.60267 -18.48112,9.202 -19.29091,4.41406 -18.64042,-0.29014 -16.64243,-4.45213 -13.55154,-7.67537 -9.73637,-9.66788 -5.63945,-10.27351 -1.72901,-9.48852 1.55185,-7.46155 3.83329,-4.4772 4.85898,-0.92468 4.51384,2.74465 2.83657,6.06672 0.0155,8.61538 -3.63204,10.04901 -7.69387,10.14794 -11.70802,8.83868 -15.21282,6.20223 -17.79702,2.46569 -19.1447,-2.02195 -19.06959,-6.82731 -17.53561,-11.47927 -14.66096,-15.5197 -10.70568,-18.55279 -6.04376,-20.28777 -1.12297,-20.57005 3.58336,-19.39791 7.62718,-16.9224 10.63395,-13.43088 12.34282,-9.31571 12.6345,-5.03175 11.54372,-1.04684 9.25517,2.20871 6.08294,4.38895 2.43622,5.26955 -1.22562,4.77219 -4.44302,2.97283 -6.80659,0.0934 -8.00173,-3.52243 -7.84312,-7.44669 -6.2952,-11.21372 -3.47626,-14.37084 0.354,-16.52776 4.82238,-17.39911 9.4823,-16.83566 13.86204,-14.84093 17.51558,-11.57106 20.07081,-7.31835 21.26966,-2.47986 20.996,2.48508 19.28808,7.10436 16.3344,10.94381 12.45318,13.65379 8.05799,15.00675 3.61286,14.9214 -0.41783,13.47117 -3.61962,10.87582 -5.67272,7.47725 -6.38652,3.7021 -5.72002,0.0151 -3.78607,-3.13157 -0.83887,-5.34768 2.75382,-6.34748 6.55089,-5.98098 10.08592,-4.25044 12.91817,-1.31041 14.68058,2.54892 15.12003,6.93286 14.12505,11.38493 11.7384,15.43621 8.15277,18.65602 3.69029,20.69858 -1.23186,21.34046 -6.1464,20.5048 -10.58601,18.26965 -14.13372,14.85965 -16.4676,10.62175 -17.39529,5.98779 -16.87446,1.42781 -15.01707,-2.60059 -12.07685,-5.70173 -8.42148,-7.58436 -4.49251,-8.09303 -0.75713,-7.22458 2.34263,-5.12818 4.4381,-2.08885 5.27407,1.50383 4.73661,5.19829 2.86567,8.53028 -0.1493,11.07359 -3.98965,12.48666 -8.2421,12.5499 -12.44349,11.19008 -16.13094,8.48849 -18.89214,4.67266 -20.41001,0.092 -20.49726,-4.81939 -19.11679,-9.58986 -16.38585,-13.76052 -12.56359,-16.93473 -8.0232,-18.82085 -3.21164,-19.26338 1.39838,-18.25957 5.35942,-15.95945 8.29748,-12.64927 9.95212,-8.72031 10.20437,-4.62623 9.08922,-0.83373 6.79151,2.22812 3.6254,4.2145 v 4.90236 l -3.6254,4.2145 -6.79151,2.22812 -9.08922,-0.83373 -10.20437,-4.62623 -9.95212,-8.72031 -8.29748,-12.64927 -5.35942,-15.95945 -1.39838,-18.25957 3.21164,-19.26338 8.0232,-18.82085 12.56359,-16.93473 16.38585,-13.76052 19.11679,-9.58986 20.49726,-4.81939 20.41001,0.092 18.89214,4.67266 16.13094,8.48849 12.44349,11.19008 8.2421,12.5499 3.98965,12.48666 0.1493,11.07359 -2.86567,8.53028 -4.73661,5.19829 -5.27407,1.50383 -4.4381,-2.08885 -2.34263,-5.12818 0.75713,-7.22458 4.49251,-8.09303 8.42148,-7.58436 12.07685,-5.70173 15.01707,-2.60059 16.87446,1.42781 17.39529,5.98779 16.4676,10.62175 14.13372,14.85965 10.58601,18.26965 6.1464,20.5048 1.23186,21.34046 -3.69029,20.69858 -8.15277,18.65602 -11.7384,15.43621 -14.12505,11.38493 -15.12003,6.93286 -14.68058,2.54892 -12.91817,-1.31041 -10.08592,-4.25044 -6.55089,-5.98098 -2.75382,-6.34748 0.83887,-5.34768 3.78607,-3.13157 5.72002,0.0151 6.38652,3.7021 5.67272,7.47725 3.61962,10.87582 0.41783,13.47117 -3.61286,14.9214 -8.05799,15.00675 -12.45318,13.65379 -16.3344,10.94381 -19.28808,7.10436 -20.996,2.48508 -21.26966,-2.47986 -20.07081,-7.31835 -17.51558,-11.57106 -13.86204,-14.84093 -9.4823,-16.83566 -4.82238,-17.39911 -0.354,-16.52776 3.47626,-14.37084 6.2952,-11.21372 7.84312,-7.44669 8.00173,-3.52243 6.80659,0.0934 4.44302,2.97283 1.22562,4.77219 -2.43622,5.26955 -6.08294,4.38895 -9.25517,2.20871 -11.54372,-1.04684 -12.6345,-5.03175 -12.34282,-9.31571 -10.63395,-13.43088 -7.62718,-16.9224 -3.58336,-19.39791 1.12297,-20.57005 6.04376,-20.28777 10.70568,-18.55279 14.66096,-15.5197 17.53561,-11.47927 19.06959,-6.82731 19.1447,-2.02195 17.79702,2.46569 15.21282,6.20223 11.70802,8.83868 7.69387,10.14794 3.63204,10.04901 -0.0155,8.61538 -2.83657,6.06672 -4.51384,2.74465 -4.85898,-0.92468 -3.83329,-4.4772 -1.55185,-7.46155 1.72901,-9.48852 5.63945,-10.27351 9.73637,-9.66788 13.55154,-7.67537 16.64243,-4.45213 18.64042,-0.29014 19.29091,4.41406 18.48112,9.202 16.25268,13.60267 12.79728,17.18323 8.43625,19.59567 3.58614,20.61427 -1.28619,20.15981 -5.71373,18.30801 -9.27956,15.28113 -11.66163,11.42373 -12.66728,7.16529 -12.25372,2.97356 -10.53222,-0.6962 -7.75569,-3.45048 -4.29079,-5.0002 -0.57786,-5.19197 2.9172,-4.02459 5.75388,-1.64912 7.56514,1.64776 8.09751,5.47481 7.23897,9.37905 5.03143,12.89491 1.66646,15.59506 -2.53515,17.13692 -7.15789,17.30018 -11.73626,16.01091 -15.8051,13.35001 -18.94968,9.54474 -20.85059,4.94452 -21.31815,-0.0166 -20.3129,-4.86653 -17.94977,-9.1459 -14.48564,-12.45742 -10.29144,-14.50859 -5.81204,-15.14288 -1.51808,-14.35638 2.14501,-12.29774 4.80501,-9.25175 6.20324,-5.60801 6.22229,-1.81844 4.89864,1.65216 2.41839,4.37668 -0.90318,6.01244 -4.65596,6.33853 -8.3799,5.28001 -11.61508,2.91636 -13.95199,-0.52702 -15.07619,-4.70295 -14.80282,-9.18 -13.09699,-13.48906 -10.07802,-17.17415 -6.0068,-19.84164 -1.25807,-21.20303 3.7199,-21.10606 8.45337,-19.55134 12.49417,-16.6923 15.46776,-12.81868 17.11351,-8.32521 17.3125,-3.66906 16.10004,0.67956 13.66158,4.28816 10.31216,6.80853 6.462,8.01429 2.57182,7.82507 -0.89749,6.31494 -3.53491,3.70403 -5.02418,0.33435 -5.17816,-3.36765 -3.95933,-6.9377 -1.48395,-9.92435 1.99039,-11.93835 6.09272,-12.69519 10.37872,-12.0464 14.37897,-9.996 17.64984,-6.70049 19.82155,-2.45229 20.63844,2.35151 19.98671,7.25182 17.907,11.77696 14.59007,15.4933 10.35641,18.05199 5.62178,19.2264 0.85229,18.93635 -3.48564,17.25655 -6.97566,14.40817 -9.29621,10.73469 -10.25499,6.66445 -9.80952,2.664 -8.07124,-0.81255 -5.29317,-3.37289 z"
       style="fill:none;stroke:#ff0000;stroke-width:0.8;stroke-linecap:round;stroke-linejoin:round;stroke-dasharray:none"
       inkscape:label="spiro"
       id="path1918" />
  </g>
  <text
     xml:space="preserve"
     style="font-style:normal;font-variant:normal;font-weight:normal;font-stretch:normal;font-size:24px;line-height:1.25;font-family:sans-serif;-inkscape-font-specification:sans-serif;font-variant-ligatures:normal;font-variant-position:normal;font-variant-caps:normal;font-variant-numeric:normal;font-variant-alternates:normal;font-variant-east-asian:normal;font-feature-settings:normal;font-variation-settings:normal;text-indent:0;text-align:center;text-decoration:none;text-decoration-line:none;text-decoration-style:solid;text-decoration-color:#000000;letter-spacing:normal;word-spacing:normal;text-transform:none;writing-mode:lr-tb;direction:ltr;text-orientation:mixed;dominant-baseline:auto;baseline-shift:baseline;text-anchor:middle;white-space:normal;shape-padding:0;shape-margin:0;inline-size:0;opacity:1;vector-effect:none;fill:#000000;fill-opacity:1;stroke-width:1;stroke-linecap:butt;stroke-linejoin:miter;stroke-miterlimit:4;stroke-dasharray:none;stroke-dashoffset:0;stroke-opacity:1;stop-color:#000000;stop-opacity:1"
     x="570"
     y="320"
     id="text1506-6-9"
     transform="translate(-50,80)"
     inkscape:export-xdpi="198.87013"
     inkscape:export-ydpi="198.87013"><tspan
       sodipodi:role="line"
       id="tspan1504-2-1"
       x="570"
       y="320">R=80 r=25 d=40</tspan></text>
  <g
     inkscape:label="Spiro"
     id="g2304"
     transform="translate(248.61678,338.79539)"
     inkscape:export-xdpi="198.87013"
     inkscape:export-ydpi="198.87013">
    <circle
       style="fill:none;stroke:#4c4c4c;stroke-width:0.5;stroke-linecap:round;stroke-linejoin:round;stroke-dasharray:none"
       inkscape:label="circle"
       id="path2298"
       cx="260"
       cy="550"
       r="80" />
    <circle
       style="fill:none;stroke:#4c4c4c;stroke-width:0.5;stroke-linecap:round;stroke-linejoin:round;stroke-dasharray:none"
       inkscape:label="circle"
       id="path2300"
       cx="360"
       cy="550"
       r="20" />
    <path
       d="m 350,550 0.29796,3.22206 0.84482,3.50811 1.24952,4.04919 1.43337,4.78642 1.3401,5.63882 0.9417,6.51164 0.24128,7.30563 -0.72705,7.9272 -1.90142,8.29769 -3.19829,8.36131 -4.52062,8.09089 -5.76744,7.49053 -6.84379,6.59538 -7.67014,5.4682 -8.19013,4.1932 -8.37619,2.86775 -8.2321,1.59278 -7.79261,0.46281 -7.11983,-0.44334 -6.29697,-1.07029 -5.41996,-1.39145 -4.58784,-1.41163 -3.8928,-1.16631 -3.41097,-0.71797 -3.1947,-0.14975 -3.26744,0.44306 -3.62134,0.96272 -4.21795,1.31882 -4.99225,1.43764 -5.859,1.26953 -6.72135,0.79409 -7.48059,0.0223 -8.04598,-1.00428 -8.34394,-2.21778 -8.32541,-3.53044 -7.97087,-4.84329 -7.29236,-6.05595 -6.33236,-7.07646 -5.15966,-7.83046 -3.86261,-8.26835 -2.5404,-8.37027 -1.29328,-8.14793 -0.21267,-7.64334 0.62782,-6.92458 1.17959,-6.0789 1.42384,-5.20392 1.37317,-4.39792 1.0703,-3.74986 0.58357,-3.33056 v -3.18556 l -0.58357,-3.33056 -1.0703,-3.74986 -1.37317,-4.39792 -1.42384,-5.20392 -1.17959,-6.0789 -0.62782,-6.92458 0.21267,-7.64334 1.29328,-8.14793 2.5404,-8.37027 3.86261,-8.26835 5.15966,-7.83046 6.33236,-7.07646 7.29236,-6.05595 7.97087,-4.84329 8.32541,-3.53044 8.34394,-2.21778 8.04598,-1.00428 7.48059,0.0223 6.72135,0.79409 5.859,1.26953 4.99225,1.43764 4.21795,1.31882 3.62134,0.96272 3.26744,0.44306 3.1947,-0.14975 3.41097,-0.71797 3.8928,-1.16631 4.58784,-1.41163 5.41996,-1.39145 6.29697,-1.07029 7.11983,-0.44334 7.79261,0.46281 8.2321,1.59278 8.37619,2.86775 8.19013,4.1932 7.67014,5.4682 6.84379,6.59538 5.76744,7.49053 4.52062,8.09089 3.19829,8.36131 1.90142,8.29769 0.72705,7.9272 -0.24128,7.30563 -0.9417,6.51164 -1.3401,5.63882 -1.43337,4.78642 -1.24952,4.04919 -0.84482,3.50811 z"
       style="fill:none;stroke:#ff0000;stroke-width:0.8;stroke-linecap:round;stroke-linejoin:round;stroke-dasharray:none"
       inkscape:label="spiro"
       id="path2302" />
  </g>
  <text
     xml:space="preserve"
     style="font-style:normal;font-variant:normal;font-weight:normal;font-stretch:normal;font-size:24px;line-height:1.25;font-family:sans-serif;-inkscape-font-specification:sans-serif;font-variant-ligatures:normal;font-variant-position:normal;font-variant-caps:normal;font-variant-numeric:normal;font-variant-alternates:normal;font-variant-east-asian:normal;font-feature-settings:normal;font-variation-settings:normal;text-indent:0;text-align:center;text-decoration:none;text-decoration-line:none;text-decoration-style:solid;text-decoration-color:#000000;letter-spacing:normal;word-spacing:normal;text-transform:none;writing-mode:lr-tb;direction:ltr;text-orientation:mixed;dominant-baseline:auto;baseline-shift:baseline;text-anchor:middle;white-space:normal;shape-padding:0;shape-margin:0;inline-size:0;opacity:1;vector-effect:none;fill:#000000;fill-opacity:1;stroke-width:1;stroke-linecap:butt;stroke-linejoin:miter;stroke-miterlimit:4;stroke-dasharray:none;stroke-dashoffset:0;stroke-opacity:1;stop-color:#000000;stop-opacity:1"
     x="590"
     y="680"
     id="text1506-6-9-2"
     transform="translate(-70,80)"
     inkscape:export-xdpi="198.87013"
     inkscape:export-ydpi="198.87013"><tspan
       sodipodi:role="line"
       id="tspan1504-2-1-7"
       x="590"
       y="680">R=80 r=20 d=10</tspan></text>
</svg>
